<?xml version="1.0" encoding="UTF-8" standalone="no"?>
<!DOCTYPE svg PUBLIC "-//W3C//DTD SVG 1.1//EN" "http://www.w3.org/Graphics/SVG/1.1/DTD/svg11.dtd">
<svg width="100%" height="100%" viewBox="0 0 150 150" version="1.1" xmlns="http://www.w3.org/2000/svg" xmlns:xlink="http://www.w3.org/1999/xlink" xml:space="preserve" xmlns:serif="http://www.serif.com/" style="fill-rule:evenodd;clip-rule:evenodd;stroke-linejoin:round;stroke-miterlimit:2;">
    <g transform="matrix(0.121896,0,0,0.121896,75,75)">
        <g transform="matrix(1,0,0,1,-516.917,-586.75)">
            <clipPath id="_clip1">
                <rect x="0" y="0" width="1033.83" height="1173.5"/>
            </clipPath>
            <g clip-path="url(#_clip1)">
                <g transform="matrix(4.16667,0,0,4.16667,0,0)">
                    <path d="M2.64,60.3L123.77,0L244.11,59.67C244.11,59.67 247.26,60.75 246.99,64.89L247.01,86.22C247.01,86.22 247.45,88.34 243.16,89.49L235.66,91.98L235.48,89.19L123.78,40.95L12,89.55L11.73,92.7L2.64,89.64C2.64,89.64 0.48,89.01 0.12,86.04L0.12,65.08C0.12,63.19 1,61.37 2.58,60.34C2.6,60.33 2.62,60.31 2.64,60.3Z" style="fill:rgb(59,84,115);fill-rule:nonzero;"/>
                    <path d="M1.39,88.83L123.57,33.48L245.16,88.83L235.47,92.15L235.47,89.19L123.77,40.95L12,89.55L12.43,92.93L2.64,89.64C2.64,89.64 1.86,89.39 1.39,88.83Z" style="fill:rgb(23,43,67);fill-rule:nonzero;"/>
                    <path d="M123.77,0L123.57,33.48L245.16,88.83C245.16,88.83 247.37,87.86 247.01,85.77L247.01,64.35C247.01,64.35 247.33,60.92 243.69,59.46L123.77,0Z" style="fill:rgb(35,57,81);fill-rule:nonzero;"/>
                    <path d="M12,89.55L123.77,40.95L235.47,89.19L235.47,94.56L123.77,46.92L12.67,94.84L12,89.55Z" style="fill:rgb(228,229,233);fill-rule:nonzero;"/>
                    <path d="M123.77,40.95L235.47,89.19L235.47,94.56L123.77,46.92L123.77,40.95Z" style="fill:rgb(173,194,195);fill-rule:nonzero;"/>
                    <path d="M0.05,102.83C-0.04,101.96 0.48,99.54 2.64,98.91L123.77,46.92L243.48,97.92C243.48,97.92 247.71,99.36 247.53,102.51L247.53,125.46C247.53,125.46 247.54,128.95 245.14,128.86L123.73,81.72L2.1,128.79C2.1,128.79 0.48,128.7 0.12,125.91L0.05,102.83Z" style="fill:rgb(34,128,52);fill-rule:nonzero;"/>
                    <path d="M2.15,126.23L21.99,118.67L122.12,79.52L121.98,50.31L3.54,100.08C3.54,100.08 3.5,100.1 3.44,100.13C2.52,100.62 1.97,101.6 1.97,102.65L2.14,126.23L2.15,126.23Z" style="fill:rgb(76,167,88);fill-rule:nonzero;"/>
                    <path d="M21.93,106.44L21.99,118.66L2.15,126.22L1.98,102.27C1.98,101.8 2.42,101.45 2.88,101.57L21.94,106.44L21.93,106.44Z" style="fill:rgb(138,221,141);fill-rule:nonzero;"/>
                    <path d="M23.07,105.72L61.53,89.52L69.63,100.04L23.28,118.16L23.07,105.72Z" style="fill:rgb(114,206,123);fill-rule:nonzero;"/>
                    <path d="M125.67,50.31L125.55,79.14L245.31,125.82L245.31,101.94C245.31,101.94 245.73,100.98 242.43,99.48L125.67,50.31Z" style="fill:rgb(57,149,76);fill-rule:nonzero;"/>
                    <path d="M225.51,106.08L245.06,101.21L245.31,125.82L225.51,118.1L225.51,106.08Z" style="fill:rgb(116,198,124);fill-rule:nonzero;"/>
                    <path d="M224.55,105.66L224.55,117.73L161.25,93.06L170.19,82.68L224.55,105.66Z" style="fill:rgb(94,178,103);fill-rule:nonzero;"/>
                    <path d="M125.55,79.14L161.25,93.06L170.19,82.68L125.55,64.14L125.55,79.14Z" style="fill:rgb(135,198,141);fill-rule:nonzero;"/>
                    <path d="M125.67,50.31L178.61,72.6L170.19,82.68L125.55,64.14L125.67,50.31Z" style="fill:rgb(105,172,119);fill-rule:nonzero;"/>
                    <path d="M11.98,132.3L11.98,130.14L123.77,87.48L235.41,129.6L235.41,131.49L245.73,128.79L123.74,81.72L2.1,128.79L11.98,132.3Z" style="fill:rgb(114,201,123);fill-rule:nonzero;"/>
                    <path d="M245.73,128.79L235.41,131.49L235.41,129.6L123.77,87.48L123.74,81.72L245.73,128.79Z" style="fill:rgb(65,155,85);fill-rule:nonzero;"/>
                    <path d="M11.98,134.51L11.98,130.14L53.83,114.17L123.77,87.48L235.41,129.6L235.74,134.28L123.77,92.7L11.98,134.51Z" style="fill:rgb(220,229,228);fill-rule:nonzero;"/>
                    <path d="M123.77,87.48L123.77,92.7L235.74,134.28L235.41,129.6L123.77,87.48Z" style="fill:rgb(176,196,197);fill-rule:nonzero;"/>
                    <path d="M53.85,79.47L121.98,50.31L122.12,79.51L69.63,100.04L53.85,79.47Z" style="fill:rgb(145,201,154);fill-rule:nonzero;"/>
                    <path d="M61.53,89.52L122.04,63.92L122.12,79.51L69.63,100.04L61.53,89.52Z" style="fill:rgb(165,224,168);fill-rule:nonzero;"/>
                    <path d="M0.05,141.66C0.05,141.66 0.49,138.42 4.9,137.16L123.78,92.7L245.32,137.79C245.32,137.79 247.82,138.69 247.55,141.66L247.55,164.88C247.55,164.88 247.42,169.02 245.32,168.3L123.78,127.98L2.1,167.85C2.1,167.85 0.33,168.75 0.04,165.78L0.04,141.66L0.05,141.66Z" style="fill:rgb(58,162,155);fill-rule:nonzero;"/>
                    <path d="M2.1,140.58L2.1,166.14L122.12,126.23L122.12,95.49L3.27,139.59C3.27,139.59 2.1,139.95 2.1,140.58Z" style="fill:rgb(84,192,179);fill-rule:nonzero;"/>
                    <path d="M25.77,145.8L25.77,158.27L2.1,166.14L2.1,140.58L25.77,145.8Z" style="fill:rgb(151,224,215);fill-rule:nonzero;"/>
                    <path d="M27.21,140.58L27.21,157.79L96.65,134.69L84,119.43L27.21,140.58Z" style="fill:rgb(122,220,207);fill-rule:nonzero;"/>
                    <path d="M122.12,126.23L122.12,106.2L84,119.43L96.65,134.69L122.12,126.23Z" style="fill:rgb(172,227,221);fill-rule:nonzero;"/>
                    <path d="M122.12,95.49L122.12,106.2L84,119.43L78,111.86L122.12,95.49Z" style="fill:rgb(154,215,207);fill-rule:nonzero;"/>
                    <path d="M123.77,92.7L245.31,137.61C245.31,137.61 247.83,138.78 247.56,141.03L247.48,165.51C247.48,165.51 247.12,169.11 245.34,168.12L123.77,127.98L123.77,92.7Z" style="fill:rgb(37,142,137);fill-rule:nonzero;"/>
                    <path d="M125.55,95.85L125.55,125.82L245.73,166.05L245.33,139.86L125.55,95.85Z" style="fill:rgb(64,170,160);fill-rule:nonzero;"/>
                    <path d="M125.55,125.82L220.72,157.68L220.78,140.53L125.56,106.42L125.55,125.82Z" style="fill:rgb(111,193,187);fill-rule:nonzero;"/>
                    <path d="M221.61,145.8L245.33,139.86L245.73,166.05L221.61,158.05L221.61,145.8Z" style="fill:rgb(128,206,193);fill-rule:nonzero;"/>
                    <path d="M1.49,168.05L11.98,171.12L11.98,169.75L123.74,133.32L235.74,169.68L235.74,171.12L245.91,168.37L123.77,127.98L1.49,168.05Z" style="fill:rgb(111,213,199);fill-rule:nonzero;"/>
                    <path d="M123.77,127.98L123.74,133.32L235.74,169.68L235.74,171.12L245.91,168.37L123.77,127.98Z" style="fill:rgb(75,170,164);fill-rule:nonzero;"/>
                    <path d="M11.98,175.69L123.86,140.28L235.74,175.32L235.74,169.68L123.74,133.32L11.98,169.75L11.98,175.69Z" style="fill:rgb(229,231,230);fill-rule:nonzero;"/>
                    <path d="M123.74,133.32L123.86,140.28L235.74,175.34L235.74,169.68L123.74,133.32Z" style="fill:rgb(175,197,195);fill-rule:nonzero;"/>
                    <path d="M0.05,181.68C0.05,181.68 0.4,178.92 5.2,177.84L123.87,140.28L243.12,177.65C245.2,178.3 246.91,179.92 247.44,182.04C247.49,182.23 247.53,182.43 247.56,182.64L247.99,206.44C247.99,206.44 247.59,209.76 245.73,209.4L124.06,174.85L2.1,209.43C2.1,209.43 0.66,210.24 0.04,207.24L0.04,181.68L0.05,181.68Z" style="fill:rgb(107,186,191);fill-rule:nonzero;"/>
                    <path d="M123.86,140.28L124.06,174.85L245.73,209.4C245.73,209.4 247.91,209.99 248.05,205.56L247.57,183.37C247.57,183.37 247.92,178.62 242.36,177.43L123.85,140.29L123.86,140.28Z" style="fill:rgb(82,157,160);fill-rule:nonzero;"/>
                    <path d="M1.65,209.53L12.09,212.31L12.09,211.32L124.06,181.35L235.74,210.96L235.74,212.31L245.73,209.4L124.06,174.85L1.65,209.53Z" style="fill:rgb(60,120,121);fill-rule:nonzero;"/>
                    <path d="M235.74,210.96L235.74,218.34L124.06,189.72L12,218.79L12.09,211.32L124.06,181.35L235.74,210.96Z" style="fill:rgb(229,229,229);fill-rule:nonzero;"/>
                    <path d="M235.74,210.96L235.74,218.34L124.06,189.72L124.06,181.35L235.74,210.96Z" style="fill:rgb(175,195,196);fill-rule:nonzero;"/>
                </g>
                <g transform="matrix(4.16667,0,0,4.16667,0,0)">
                    <path d="M248.04,226.08C248.14,221.76 243.98,220.56 243.98,220.56L124.05,189.72L7.34,219.96C-0.94,221.4 0.04,225.96 0.04,225.96L0.04,239.76L0,242.88L0.04,281.63L124.03,262.72L247.55,281.63L248.04,226.08Z" style="fill:rgb(47,47,47);fill-rule:nonzero;"/>
                </g>
                <g transform="matrix(4.16667,0,0,4.16667,0,0)">
                    <path d="M124.05,189.72L239.19,219.23C239.73,219.37 240.29,219.44 240.84,219.54C249.39,221.15 248.05,226.8 248.05,226.8L248.07,243.84L247.56,281.63L124.06,262.72L124.06,189.72L124.05,189.72Z" style="fill:rgb(35,35,35);fill-rule:nonzero;"/>
                </g>
            </g>
        </g>
    </g>
</svg>
